<svg xmlns="http://www.w3.org/2000/svg" width="84" height="83" viewBox="0 0 84 83" fill="none">
  <path fill="#ffffff" d="M80.8242 41.5C80.8242 62.969 63.4202 80.373 41.9512 80.373C56.5501 80.373 68.3848 68.5383 68.3848 53.9394C68.3848 39.3405 56.5501 27.5057 41.9512 27.5057C27.3523 27.5057 15.5175 39.3405 15.5175 53.9394C15.5175 68.5383 27.3523 80.373 41.9512 80.373C20.4822 80.373 3.07812 62.969 3.07812 41.5C3.07812 20.031 20.4822 2.62695 41.9512 2.62695C63.4202 2.62695 80.8242 20.031 80.8242 41.5Z"/>
  <path fill="#ffffff" d="M41.9512 80.373C31.6461 80.373 23.2921 72.0191 23.2921 61.714C23.2921 51.4089 31.6461 43.0549 41.9512 43.0549C52.2563 43.0549 60.6102 51.4089 60.6102 61.714C60.6102 72.0191 52.2563 80.373 41.9512 80.373Z"/>
</svg>